<svg xmlns="http://www.w3.org/2000/svg" width="560" height="480" viewBox="0 0 560 480">
    <g fill="none" fill-rule="evenodd">
        <path fill="#470D21" d="M352 168c4.418 0 8 3.582 8 8v296c0 4.418-3.582 8-8 8H208c-4.418 0-8-3.582-8-8V176c0-4.418 3.582-8 8-8h144zm200 92c4.418 0 8 3.582 8 8v204c0 4.418-3.582 8-8 8H408c-4.418 0-8-3.582-8-8V268c0-4.418 3.582-8 8-8h144zm-400 92c4.418 0 8 3.582 8 8v112c0 4.418-3.582 8-8 8H8c-4.418 0-8-3.582-8-8V360c0-4.418 3.582-8 8-8h144zM549.6 0c5.744 0 10.4 4.656 10.4 10.4v199.2c0 5.744-4.656 10.4-10.4 10.4H410.4c-5.744 0-10.4-4.656-10.4-10.4V10.4C400 4.656 404.656 0 410.4 0h139.2z"/>
        <rect width="160" height="128" x="200" fill="#F9E4D4" rx="8"/>
        <rect width="160" height="312" fill="#F9E4D4" rx="8"/>
    </g>
</svg>
